<svg width="363" height="207" viewBox="0 0 363 207" fill="none" xmlns="http://www.w3.org/2000/svg">
<path d="M109.312 131V89.144H116.736V105.976H133.696V89.144H141.12V131H133.696V112.44H116.736V131H109.312ZM157.446 131.768C154.715 131.768 152.475 130.915 150.726 129.208C149.019 127.501 148.166 125.283 148.166 122.552C148.166 119.181 149.638 116.579 152.582 114.744C155.526 112.867 160.219 111.587 166.662 110.904C166.619 109.24 166.171 107.811 165.318 106.616C164.507 105.379 163.035 104.76 160.902 104.76C159.366 104.76 157.851 105.059 156.358 105.656C154.907 106.253 153.478 106.979 152.07 107.832L149.382 102.904C151.131 101.795 153.094 100.835 155.27 100.024C157.488 99.2133 159.835 98.808 162.31 98.808C166.235 98.808 169.158 99.9813 171.078 102.328C173.04 104.632 174.022 107.981 174.022 112.376V131H167.942L167.43 127.544H167.174C165.766 128.739 164.251 129.741 162.63 130.552C161.051 131.363 159.323 131.768 157.446 131.768ZM159.814 126.008C161.094 126.008 162.246 125.709 163.27 125.112C164.336 124.472 165.467 123.619 166.662 122.552V115.512C162.395 116.067 159.43 116.899 157.766 118.008C156.102 119.075 155.27 120.397 155.27 121.976C155.27 123.384 155.696 124.408 156.55 125.048C157.403 125.688 158.491 126.008 159.814 126.008ZM194.67 131.768C191.811 131.768 189.23 131.128 186.926 129.848C184.664 128.525 182.851 126.648 181.486 124.216C180.163 121.741 179.502 118.776 179.502 115.32C179.502 111.821 180.227 108.856 181.678 106.424C183.128 103.949 185.048 102.072 187.438 100.792C189.87 99.4693 192.472 98.808 195.246 98.808C197.251 98.808 199 99.1493 200.494 99.832C201.987 100.515 203.31 101.347 204.462 102.328L200.878 107.128C200.067 106.403 199.235 105.848 198.382 105.464C197.528 105.037 196.611 104.824 195.63 104.824C193.112 104.824 191.043 105.784 189.422 107.704C187.843 109.624 187.054 112.163 187.054 115.32C187.054 118.435 187.822 120.952 189.358 122.872C190.936 124.792 192.963 125.752 195.438 125.752C196.675 125.752 197.827 125.496 198.894 124.984C200.003 124.429 201.006 123.789 201.902 123.064L204.91 127.928C203.459 129.208 201.838 130.168 200.046 130.808C198.254 131.448 196.462 131.768 194.67 131.768ZM209.832 131V85.816H217.064V114.04H217.256L228.904 99.576H236.968L226.216 112.376L238.056 131H230.056L221.992 117.368L217.064 123V131H209.832ZM242.63 131V89.144H251.014L258.438 109.624C258.907 110.947 259.355 112.312 259.782 113.72C260.251 115.085 260.699 116.451 261.126 117.816H261.382C261.851 116.451 262.299 115.085 262.726 113.72C263.152 112.312 263.579 110.947 264.006 109.624L271.238 89.144H279.686V131H272.838V111.864C272.838 110.541 272.88 109.112 272.966 107.576C273.094 105.997 273.222 104.419 273.35 102.84C273.52 101.261 273.67 99.832 273.798 98.552H273.542L270.15 108.28L263.302 127.096H258.886L251.974 108.28L248.646 98.552H248.39C248.518 99.832 248.646 101.261 248.774 102.84C248.944 104.419 249.072 105.997 249.158 107.576C249.286 109.112 249.35 110.541 249.35 111.864V131H242.63ZM289.037 131V89.144H300.237C306.637 89.144 311.629 90.872 315.213 94.328C318.797 97.784 320.589 102.968 320.589 109.88C320.589 116.835 318.818 122.104 315.277 125.688C311.736 129.229 306.85 131 300.621 131H289.037ZM296.461 124.984H299.725C303.949 124.984 307.213 123.768 309.517 121.336C311.821 118.861 312.973 115.043 312.973 109.88C312.973 104.76 311.821 101.027 309.517 98.68C307.213 96.3333 303.949 95.16 299.725 95.16H296.461V124.984Z" fill="#333"/>
<path d="M69.3333 94.2031V78H42.25C40.449 78 39 79.2748 39 80.8594V136.141C39 137.725 40.449 139 42.25 139H87.75C89.551 139 91 137.725 91 136.141V97.0625H72.5833C70.7958 97.0625 69.3333 95.7758 69.3333 94.2031ZM78 122.32C78 123.107 77.2687 123.75 76.375 123.75H53.625C52.7313 123.75 52 123.107 52 122.32V121.367C52 120.581 52.7313 119.938 53.625 119.938H76.375C77.2687 119.938 78 120.581 78 121.367V122.32ZM78 114.695C78 115.482 77.2687 116.125 76.375 116.125H53.625C52.7313 116.125 52 115.482 52 114.695V113.742C52 112.956 52.7313 112.312 53.625 112.312H76.375C77.2687 112.312 78 112.956 78 113.742V114.695ZM78 106.117V107.07C78 107.857 77.2687 108.5 76.375 108.5H53.625C52.7313 108.5 52 107.857 52 107.07V106.117C52 105.331 52.7313 104.688 53.625 104.688H76.375C77.2687 104.688 78 105.331 78 106.117ZM91 92.5232V93.25H73.6667V78H74.4927C75.3594 78 76.1854 78.2979 76.7948 78.834L90.0521 90.5098C90.6615 91.0459 91 91.7727 91 92.5232Z" fill="#333"/>
</svg>
