<svg id="圖層_1" data-name="圖層 1" xmlns="http://www.w3.org/2000/svg" viewBox="0 0 800 800"><defs><style>.cls-1{fill:#333;}</style></defs><title>LOGO</title><path class="cls-1" d="M195.26,371.27v82.5a7.5,7.5,0,0,1-7.5,7.5h-105a7.5,7.5,0,0,1-7.5-7.5v-125a7.5,7.5,0,0,1,7.5-7.5h62.5v42.5a7.5,7.5,0,0,0,7.5,7.5Zm-30,12.5a2.47,2.47,0,0,0-2.5-2.5h-55a2.46,2.46,0,0,0-2.5,2.5v5a2.47,2.47,0,0,0,2.5,2.5h55a2.48,2.48,0,0,0,2.5-2.5Zm0,20a2.47,2.47,0,0,0-2.5-2.5h-55a2.46,2.46,0,0,0-2.5,2.5v5a2.47,2.47,0,0,0,2.5,2.5h55a2.48,2.48,0,0,0,2.5-2.5Zm0,20a2.47,2.47,0,0,0-2.5-2.5h-55a2.46,2.46,0,0,0-2.5,2.5v5a2.47,2.47,0,0,0,2.5,2.5h55a2.48,2.48,0,0,0,2.5-2.5Zm26.87-62.5H155.26V324.39a16.7,16.7,0,0,1,2.81,2.19l31.87,31.87A16.4,16.4,0,0,1,192.13,361.27Z"/><path class="cls-1" d="M241.9,349.71h16.24V386.5h37V349.71h16.23v91.56H295.16v-40.6h-37v40.6H241.9Z"/><path class="cls-1" d="M329.59,422.79c0-14.73,12.21-22.4,40.44-25.43-.23-7.39-3.2-13.55-12.49-13.55-6.83,0-13.27,3.08-19.32,6.78l-5.94-10.76c7.56-4.76,17.31-9,28.23-9,17.19,0,25.64,10.58,25.64,29.73v40.72H372.94l-1.23-7.62h-.45c-6.16,5.26-13.22,9.3-21.34,9.3C337.88,443,329.59,434.77,329.59,422.79Zm40.44,0V407.39c-18.65,2.35-24.87,7.22-24.87,14.16,0,6.08,4.15,8.74,9.91,8.74C360.67,430.29,364.93,427.54,370,422.84Z"/><path class="cls-1" d="M401,406.94c0-22.91,16.19-36.12,34.5-36.12a29.37,29.37,0,0,1,20.1,7.73L447.75,389c-3.64-3.19-7.11-5-11.42-5-11.09,0-18.76,9.18-18.76,23s7.56,22.85,18.26,22.85c5.37,0,10.3-2.64,14.22-5.94l6.55,10.64A34,34,0,0,1,434.15,443C415.39,443,401,429.73,401,406.94Z"/><path class="cls-1" d="M470.15,342.37H486v61.77h.44l25.48-31.64h17.64l-23.57,28,26,40.77H514.39L496.7,411.42,486,423.79v17.48h-15.8Z"/><path class="cls-1" d="M544.58,349.71h18.36l16.19,44.74c2,5.82,3.86,12,5.88,18h.56c2-6,3.75-12.16,5.77-18l15.84-44.74h18.37v91.56H610.66V399.38c0-8.46,1.28-20.64,2.07-29.12h-.56l-7.39,21.28-15.07,41.13h-9.63L565,391.54l-7.28-21.28h-.56c.78,8.48,2.07,20.66,2.07,29.12v41.89H544.58Z"/><path class="cls-1" d="M648.85,349.71h24.41c28.06,0,44.63,15.12,44.63,45.41s-16.57,46.15-43.79,46.15H648.85Zm23.35,78.4c18.42,0,29-10.48,29-33s-10.59-32.25-29-32.25h-7.11v65.24Z"/></svg>