<svg xmlns="http://www.w3.org/2000/svg" xmlns:xlink="http://www.w3.org/1999/xlink" version="1.1" width="221pt" height="118pt" viewBox="0 0 221 118">
<path transform="matrix(1,0,0,-1,37.058,57.598)" d="M0 0V-20.593L-22.818-49.471V45.506H0V0" fill="#0066b3" fill-rule="evenodd"/>
<path transform="matrix(1,0,0,-1,91.117,87.729999)" d="M0 0 .006 .008H-13.474V30.133H-51.968L-39.814 45.514H-13.474V75.638H9.342V13.65L26.023 38.028 15.523 75.63H38.874L43.376 59.457 56.563 75.63H79.935L49.558 37.921 53.576 23.864 95.531 75.63H118.734L57.838 0H36.475L32.101 16.259 18.999 0H0" fill="#f5821f" fill-rule="evenodd"/>
<path transform="matrix(1,0,0,-1,77.589,97.484)" d="M0 0V6.817H1.788V4.13H5.297V6.817H7.084V0H5.297V2.979H1.788V0H0" fill="#005aaa" fill-rule="evenodd"/>
<path transform="matrix(1,0,0,-1,92.551,96.888)" d="M0 0-.738-.722C-1.098-.588-1.443-.403-1.776-.164-2.272-.51-2.886-.682-3.612-.682-4.332-.682-4.885-.543-5.274-.262-5.661 .017-5.856 .35-5.856 .738-5.856 1.363-5.373 1.862-4.412 2.234-4.846 2.628-5.063 2.986-5.063 3.299-5.063 3.639-4.893 3.901-4.551 4.081-4.206 4.262-3.786 4.353-3.288 4.353-2.834 4.353-2.433 4.262-2.078 4.081-1.724 3.901-1.549 3.621-1.549 3.245-1.549 2.841-1.931 2.456-2.702 2.085L-1.82 1.188C-1.714 1.332-1.624 1.518-1.549 1.745L-.458 1.551C-.618 1.089-.797 .755-1.001 .548-.655 .301-.323 .117 0 0ZM-3.301 2.643-2.978 2.839C-2.735 2.983-2.616 3.125-2.616 3.265-2.616 3.554-2.83 3.697-3.264 3.697-3.673 3.697-3.878 3.573-3.878 3.332-3.878 3.214-3.784 3.073-3.601 2.91L-3.301 2.643ZM-3.777 1.632C-4.333 1.414-4.612 1.129-4.612 .772-4.612 .314-4.296 .087-3.665 .087-3.303 .087-2.932 .211-2.546 .46L-3.777 1.632ZM18.911-.596 15.743 6.221H17.687L19.929 1.179 22.098 6.221H23.996L20.826-.596H18.911ZM27.284 5.01H25.5897V6.2207005H27.284ZM25.59 5.01ZM27.284-.596H25.5897V4.3396999H27.284ZM25.59-.596ZM29.112 .815 30.817 1.014C30.966 .495 31.424 .238 32.196 .238 33.004 .238 33.41 .414 33.41 .772 33.41 .973 33.178 1.109 32.713 1.191 31.145 1.458 30.194 1.72 29.86 1.983 29.519 2.243 29.354 2.561 29.354 2.937 29.354 3.947 30.253 4.453 32.055 4.453 33.629 4.453 34.569 4.018 34.892 3.15L33.29 2.922C33.153 3.316 32.753 3.512 32.083 3.512 31.312 3.512 30.928 3.378 30.928 3.106 30.928 2.885 31.531 2.67 32.742 2.467 33.629 2.318 34.241 2.133 34.593 1.91 34.939 1.687 35.113 1.369 35.113 .95 35.113 .404 34.829-.01 34.258-.29 33.688-.569 32.999-.711 32.196-.711 30.478-.711 29.451-.202 29.112 .815ZM38.989 5.01H37.2936V6.2207005H38.989ZM37.293 5.01ZM38.989-.596H37.2936V4.3396999H38.989ZM37.293-.596ZM41.028 1.939C41.028 2.638 41.331 3.231 41.935 3.719 42.542 4.211 43.342 4.453 44.335 4.453 45.318 4.453 46.116 4.214 46.728 3.734 47.344 3.255 47.652 2.639 47.652 1.888 47.652 1.14 47.341 .52 46.725 .026 46.109-.465 45.314-.711 44.343-.711 43.338-.711 42.532-.48 41.933-.02 41.327 .442 41.028 1.095 41.028 1.939ZM42.77 1.877C42.77 1.424 42.906 1.06 43.18 .779 43.457 .498 43.841 .359 44.335 .359 44.827 .359 45.214 .501 45.489 .782 45.765 1.064 45.899 1.431 45.899 1.884 45.899 2.333 45.765 2.699 45.489 2.973 45.214 3.248 44.827 3.386 44.335 3.386 43.841 3.386 43.457 3.248 43.18 2.968 42.906 2.692 42.77 2.326 42.77 1.877ZM55.519-.596H53.815V1.925C53.815 2.504 53.745 2.905 53.606 3.125 53.466 3.348 53.188 3.456 52.768 3.456 52.392 3.456 52.064 3.372 51.781 3.203 51.5 3.035 51.358 2.513 51.358 1.641V-.596H49.664V4.34H51.239V3.613C51.8 4.175 52.508 4.453 53.36 4.453 54.797 4.453 55.519 3.795 55.519 2.474V-.596" fill="#58595b" fill-rule="evenodd"/>
<path transform="matrix(1,0,0,-1,95.338,97.484)" d="M0 0-2.112 6.817H-.288L1.057 2.138 2.676 6.817H4.798L6.353 2.06 7.714 6.817H9.52L7.363 0H5.463L3.706 5.094 1.946 0H0" fill="#f5821f" fill-rule="evenodd"/>
</svg>
